# xmcd
#
# Track frame offsets: 
#        187
#        22867
#        43052
#        71564
#        91712
#        112629
#        131457
#        153824
#        171412
#        193004
#        215234
#        235299
#
# Disc length: 3213 seconds
#
# Revision: 1
# Processed by: cddbd v1.5.2PL0 Copyright (c) Steve Scherf et al.
# Submitted via: ExactAudioCopy v0.95a5
#
DISCID=980c8b0c
DTITLE=Toni Braxton - k-Toni Braxton
DYEAR=1993
DGENRE=R&B
TTITLE0=Another Sad Love Song
TTITLE1=Breathe Again
TTITLE2=Seven Whole Days
TTITLE3=Love Affair
TTITLE4=Candlelight
TTITLE5=Spending My Time With You
TTITLE6=Love Shoulda Brought You Home
TTITLE7=I Belong To You
TTITLE8=How Many Ways
TTITLE9=You Mean The World To Me
TTITLE10=Best Friend
TTITLE11=Breathe Again (Reprise)
EXTD=
EXTT0=
EXTT1=
EXTT2=
EXTT3=
EXTT4=
EXTT5=
EXTT6=
EXTT7=
EXTT8=
EXTT9=
EXTT10=
EXTT11=
PLAYORDER=
